<svg xmlns="http://www.w3.org/2000/svg" width="1201" height="313" fill="none"><path fill="#fff" d="M.607 187.716h38.22c2.406 16.764 17.506 25.367 33.655 25.367 12.683 0 26.213-5.416 26.213-18.603 0-9.426-6.765-16.066-20.294-19.448-16.912-4.228-20.294-5.275-37.206-9.302-17.88-4.257-37.544-16.911-37.544-43.97 0-32.47 32.517-51.074 62.574-51.074 33.552 0 67.836 18.144 69.338 54.456h-38.56c-2.221-14.591-16.153-22.831-30.44-22.831-11.152 0-25.368 4.789-25.368 17.758 0 9.231 9.175 14.11 17.42 16.235 16.288 4.197 11.296 2.505 28.242 6.596 32.132 7.756 52.426 20.294 52.426 51.58 0 35.352-35.549 52.088-67.647 52.088-35.343 0-69.557-20.31-71.03-58.852z"/><path fill="#fff" d="M171.078 241.838 141.99 72.721h44.985l14.883 111.617 60.543-111.617h44.986L176.659 312.867h-44.985l39.404-71.029zM314.15 72.716h44.309v25.706c4.735-8.794 11.72-15.61 20.971-20.463 9.25-4.854 19.837-7.273 31.794-7.273 11.956 0 23.389 2.825 32.978 8.456 9.588 5.632 17.03 13.58 22.323 23.846 5.293 10.265 7.949 21.934 7.949 35.007v105.529h-44.309v-96.058c0-11.044-3.163-20.007-9.471-26.89-6.308-6.883-14.544-10.316-24.691-10.316-7.221 0-13.648 1.742-19.279 5.243-5.632 3.5-10.096 8.286-13.36 14.375-3.264 6.088-4.905 12.971-4.905 20.632v93.014H314.15V72.716zm175.205 85.405c0-49.748 38.02-88.786 87.095-88.786 41.434 0 76.948 27.059 81.329 66.97H613.47c-3.196-16.235-17.571-27.228-37.02-27.228-27.821 0-42.279 23.879-42.279 49.044 0 25.999 15.09 49.044 43.125 49.044 18.603 0 32.132-9.301 36.36-24.522h44.123c-4.381 40.589-43.016 64.265-81.329 64.265-49.865 0-87.095-39.931-87.095-88.787zm226.618-9.298v94.706h-43.987V72.721h43.987v29.764c7.679-18.605 21.986-29.764 43.616-29.764h18.958v38.897h-27.059c-28.75 0-35.515 14.703-35.515 37.205zm62.894 9.468c0-47.74 28.919-88.956 83.392-88.956s84.389 36.982 84.389 83.882c0 4.955-.22 9.927-.676 14.882H804.573v-28.75h97.073c-1.38-21.148-17.92-35.852-38.897-35.852-30.865 0-41.941 26.136-41.941 54.117 0 26.675 13.655 52.426 43.142 52.426 17.757 0 32.978-6.257 37.206-22.323h41.434c-6.765 37.206-36.851 59.191-79.486 59.191-48.924 0-84.237-39.186-84.237-88.617zM996.352 0h44.308l-47.352 243.528h-44.309L996.352 0zm68.338 241.838L1035.6 72.721h44.99l14.88 111.617 60.54-111.617H1201l-130.56 240.146h-44.98l39.23-71.029z"/></svg>